<?xml version="1.0" encoding="UTF-8"?>
<svg id="Layer_1" data-name="Layer 1" xmlns="http://www.w3.org/2000/svg" viewBox="0 0 548.79 258.44">
  <defs>
    <style>
      .cls-1 {
        fill: none;
        stroke: #3b3b38;
        stroke-miterlimit: 10;
        stroke-width: 9px;
      }

      .cls-2 {
        fill: #3b3b38;
      }
    </style>
  </defs>
  <path class="cls-1" d="M274.13,16.02v91.31V16.02Z"/>
  <line class="cls-1" x1="228.16" y1="61.99" x2="320.1" y2="61.99"/>
  <path class="cls-1" d="M267.75,16.48s-44.48,47.01,0,91.49"/>
  <path class="cls-1" d="M280.56,16.48s46.72,44.77,0,91.49"/>
  <line class="cls-1" x1="236.23" y1="35.99" x2="313.8" y2="35.99"/>
  <line class="cls-1" x1="236.23" y1="88" x2="313.8" y2="88"/>
  <g>
    <path class="cls-2" d="M30.53,116.73c-9.67-5.06-17.17-12.28-22.51-21.66C2.67,85.7,0,74.75,0,62.25s2.67-23.45,8.02-32.83c5.34-9.38,12.85-16.63,22.51-21.74C40.19,2.56,51.27,0,63.78,0c8.53,0,16.14.91,22.85,2.73,6.71,1.82,12.79,4.72,18.25,8.7v20.63c-5-4.32-10.74-7.44-17.22-9.38-6.48-1.93-13.81-2.9-22-2.9s-15.6,1.73-22.26,5.2c-6.65,3.47-11.91,8.42-15.77,14.84-3.87,6.42-5.8,13.9-5.8,22.43s1.82,16.17,5.46,22.6c3.64,6.42,8.7,11.37,15.18,14.84,6.48,3.47,13.87,5.2,22.17,5.2,8.75,0,15.97-1.48,21.66-4.43v-26.77h-20.12v-17.22h41.78v55.6c-10.57,8.19-25.3,12.28-44.17,12.28-12.51,0-23.59-2.53-33.25-7.59Z"/>
    <path class="cls-2" d="M116.65,2.56h49.8c13.19,0,23.36,3.24,30.53,9.72,7.16,6.48,10.74,15.86,10.74,28.14,0,8.76-2.16,16.2-6.48,22.34-4.32,6.14-10.46,10.52-18.42,13.13l24.22,45.88h-22.17l-23.02-43.66h-23.53v43.66h-21.66V2.56ZM162.52,60.2c7.05,0,12.73-1.65,17.05-4.95,4.32-3.3,6.48-8.24,6.48-14.84,0-13.3-7.84-19.95-23.53-19.95h-24.22v39.74h24.22Z"/>
    <path class="cls-2" d="M241.39,116.56c-9.61-5.17-17.17-12.48-22.68-21.91-5.52-9.44-8.27-20.24-8.27-32.4s2.76-22.96,8.27-32.4c5.51-9.44,13.07-16.77,22.68-22,9.61-5.23,20.38-7.84,32.32-7.84s22.54,2.62,32.15,7.84c9.61,5.23,17.17,12.56,22.68,22,5.51,9.44,8.27,20.24,8.27,32.4s-2.76,22.94-8.27,32.32c-5.52,9.38-13.08,16.69-22.68,21.91-9.61,5.23-20.32,7.84-32.15,7.84s-22.71-2.58-32.32-7.76ZM294.52,99.51c6.25-3.47,11.23-8.41,14.92-14.84,3.69-6.42,5.54-13.9,5.54-22.43s-1.82-15.83-5.46-22.26c-3.64-6.42-8.58-11.4-14.84-14.92-6.25-3.52-13.25-5.29-20.98-5.29s-14.75,1.76-21.06,5.29c-6.31,3.53-11.29,8.5-14.92,14.92-3.64,6.42-5.46,13.84-5.46,22.26s1.85,16,5.54,22.43c3.69,6.42,8.7,11.37,15.01,14.84,6.31,3.47,13.27,5.2,20.89,5.2s14.55-1.73,20.81-5.2Z"/>
    <path class="cls-2" d="M357.53,111.11c-8.58-8.81-12.88-20.72-12.88-35.73V2.56h21.66v73.16c0,9.44,2.64,16.63,7.93,21.57,5.29,4.95,12.42,7.42,21.4,7.42s15.95-2.47,21.23-7.42c5.29-4.95,7.93-12.14,7.93-21.57V2.56h21.66v72.82c0,15.01-4.26,26.92-12.79,35.73-8.53,8.81-21.21,13.22-38.03,13.22s-29.53-4.4-38.12-13.22Z"/>
    <path class="cls-2" d="M457.72,2.56h47.75c13.07,0,23.56,3.47,31.46,10.4,7.9,6.94,11.85,16.43,11.85,28.48s-3.92,22.03-11.77,28.57c-7.84,6.54-18.42,9.81-31.72,9.81h-25.92v41.95h-21.66V2.56ZM502.74,61.91c16.26,0,24.39-6.82,24.39-20.46s-8.13-20.98-24.39-20.98h-23.36v41.44h23.36Z"/>
    <path class="cls-2" d="M15.43,245.22c-8.59-8.81-12.88-20.72-12.88-35.73v-72.82h21.66v73.16c0,9.44,2.64,16.63,7.93,21.57,5.29,4.95,12.42,7.42,21.4,7.42s15.95-2.47,21.23-7.42c5.29-4.95,7.93-12.13,7.93-21.57v-73.16h21.66v72.82c0,15.01-4.26,26.92-12.79,35.73-8.53,8.81-21.21,13.22-38.03,13.22s-29.53-4.4-38.12-13.22Z"/>
    <path class="cls-2" d="M115.62,136.67h47.75c13.07,0,23.56,3.47,31.46,10.4,7.9,6.94,11.85,16.43,11.85,28.48s-3.92,22.03-11.77,28.57c-7.85,6.54-18.42,9.81-31.72,9.81h-25.92v41.95h-21.66v-119.21ZM160.64,196.02c16.26,0,24.39-6.82,24.39-20.46s-8.13-20.98-24.39-20.98h-23.36v41.44h23.36Z"/>
  </g>
</svg>